<svg xmlns="http://www.w3.org/2000/svg" style="display: none;">
  <symbol id="icon-x" viewBox="0 0 203.96 182.07">
    <g id="Layer_1-2" data-name="Layer 1">
      <path d="M0,139.31c2.81-8.68,9.62-11.12,15.82-16.51,4.12-3.58,8.12-7.84,12.57-11.31,12.66-9.86,27.07-18.67,41.27-25.9-10.44-14.03-24.02-25.03-37.21-36.39-.83-.72-2.47-.78-3.63-1.82-19.66-17.54.99-43.92,22.27-31.23,10.64,6.34,32.64,27.48,41.46,37.14,2.5,2.74,3.8,7.18,7.45,9.21,14.38-8.95,25.02-22.58,37.85-33.55,8.81-7.53,31.08-25.45,41.45-28.19,21.5-5.67,34.26,22.39,15.7,34.59-8,5.26-16.23,9.26-24.32,15.48-10.24,7.87-18.11,16.99-27.34,25.38-6.25,5.68-13.1,10.94-19.95,15.9,12.76,18.48,27.99,33.93,44.77,48.72,8.28,7.3,17.05,9.61,17.02,22.86-.02,9.3-5.97,15.06-14.02,18.4h-9.95c-2.06-1.67-4.66-1.95-6.9-3.55-16.66-11.8-31.58-29.38-45.84-43.7l-15.41-20.28c-15.29,9.67-31.28,18.51-45.52,29.72-6,4.72-14.04,14.92-21.38,17.7-11.35,4.31-22.5-1.56-26.16-12.72v-9.95Z"/>
    </g>
  </symbol>
  
  <symbol id="icon-plus" viewBox="0 0 273.13 254.1">
    <g id="Layer_1-2" data-name="Layer 1">
      <path d="M121.68,254.1c-2.69-1.82-6.04-2.69-8.46-4.99-14.01-13.35-9.12-70.82-8.44-90.1.16-4.48-.2-9.02-.04-13.49H14.57c-1.85,0-8.4-4.34-9.9-6.04-6.23-7.04-6.22-18.74,0-25.77,1.5-1.7,8.05-6.04,9.9-6.04h95.15c.3-26.39,7.45-51.95,9.95-78.2.73-7.65-1.59-12.95,2.57-20.34,7.33-13.01,28.53-11.89,33.79,1.94,3.67,9.65-.03,34.95-1.6,46.18-.99,7.07-9.95,47.21-6.8,50.37,12.39-.34,24.96.63,37.35.1,23.46-1.02,48.12-5.69,71.7-3.03,8.92,1.01,13.03,6.31,16.44,13.95v9.96c-2.94,5.82-7.61,11.9-14.53,12.86-13.08,1.81-28.45.38-41.75,1.09-10.4.56-21.66,2.58-31.85,3.02-14.07.6-28.32-.53-42.39-.05-.58.59.12,10.4.01,12.38-1.04,18.37-2.71,42.7-1.05,60.88.88,9.67,7.01,13.12,2.53,24.36-2.37,5.93-7.07,8.29-12.45,10.96h-9.96Z"/>
    </g>
  </symbol>
</svg>