<?xml version="1.0" encoding="UTF-8"?>
<svg id="Layer_2" data-name="Layer 2" xmlns="http://www.w3.org/2000/svg" viewBox="0 0 273.13 254.1">
  <g id="Layer_1-2" data-name="Layer 1">
    <path d="M121.68,254.1c-2.69-1.82-6.04-2.69-8.46-4.99-14.01-13.35-9.12-70.82-8.44-90.1.16-4.48-.2-9.02-.04-13.49H14.57c-1.85,0-8.4-4.34-9.9-6.04-6.23-7.04-6.22-18.74,0-25.77,1.5-1.7,8.05-6.04,9.9-6.04h95.15c.3-26.39,7.45-51.95,9.95-78.2.73-7.65-1.59-12.95,2.57-20.34,7.33-13.01,28.53-11.89,33.79,1.94,3.67,9.65-.03,34.95-1.6,46.18-.99,7.07-9.95,47.21-6.8,50.37,12.39-.34,24.96.63,37.35.1,23.46-1.02,48.12-5.69,71.7-3.03,8.92,1.01,13.03,6.31,16.44,13.95v9.96c-2.94,5.82-7.61,11.9-14.53,12.86-13.08,1.81-28.45.38-41.75,1.09-10.4.56-21.66,2.58-31.85,3.02-14.07.6-28.32-.53-42.39-.05-.58.59.12,10.4.01,12.38-1.04,18.37-2.71,42.7-1.05,60.88.88,9.67,7.01,13.12,2.53,24.36-2.37,5.93-7.07,8.29-12.45,10.96h-9.96Z"/>
  </g>
</svg>